<?xml version="1.0" standalone="no"?><!DOCTYPE svg PUBLIC "-//W3C//DTD SVG 1.1//EN" "http://www.w3.org/Graphics/SVG/1.1/DTD/svg11.dtd"><svg t="1648178089999" class="icon" viewBox="0 0 1024 1024" version="1.1" xmlns="http://www.w3.org/2000/svg" p-id="2016" xmlns:xlink="http://www.w3.org/1999/xlink" width="200" height="200"><defs></defs><path d="M320 433.792a64 64 0 0 1 101.184-52.096l109.568 78.272a64 64 0 0 1 0 104.128l-109.568 78.272A64 64 0 0 1 320 590.272V433.792z m76.8 131.584L471.552 512 396.8 458.624v106.752z" p-id="2017"></path><path d="M193.472 246.976a51.2 51.2 0 0 0-39.872 49.92v430.272a51.2 51.2 0 0 0 39.872 49.92l460.8 104.704a51.2 51.2 0 0 0 62.528-49.92V806.4h76.8a89.6 89.6 0 0 0 89.6-89.6V307.2a89.6 89.6 0 0 0-89.6-89.6h-76.8v-25.472a51.2 51.2 0 0 0-62.528-49.92l-460.8 104.768z m36.928 70.4L640 224.192v575.552l-409.6-93.12V317.312z m486.4-22.976h76.8c7.04 0 12.8 5.76 12.8 12.8v409.6a12.8 12.8 0 0 1-12.8 12.8h-76.8V294.4z" p-id="2018"></path></svg>