<?xml version="1.0" standalone="no"?><!DOCTYPE svg PUBLIC "-//W3C//DTD SVG 1.1//EN" "http://www.w3.org/Graphics/SVG/1.1/DTD/svg11.dtd"><svg t="1648178083006" class="icon" viewBox="0 0 1024 1024" version="1.1" xmlns="http://www.w3.org/2000/svg" p-id="1885" xmlns:xlink="http://www.w3.org/1999/xlink" width="200" height="200"><defs></defs><path d="M128 793.6V512a51.2 51.2 0 0 1 51.2-51.2h179.2v-256a51.2 51.2 0 0 1 51.2-51.2h204.8a51.2 51.2 0 0 1 51.2 51.2v153.6h179.2a51.2 51.2 0 0 1 51.2 51.2v384h38.4a38.4 38.4 0 1 1 0 76.8H89.6a38.4 38.4 0 1 1 0-76.8H128z m307.2 0h153.6V230.4H435.2v563.2z m-76.8 0v-256H204.8v256h153.6z m460.8 0V435.2h-153.6v358.4h153.6z" p-id="1886"></path></svg>