<?xml version="1.0" standalone="no"?><!DOCTYPE svg PUBLIC "-//W3C//DTD SVG 1.1//EN" "http://www.w3.org/Graphics/SVG/1.1/DTD/svg11.dtd"><svg t="1648177654918" class="icon" viewBox="0 0 1024 1024" version="1.1" xmlns="http://www.w3.org/2000/svg" p-id="1722" xmlns:xlink="http://www.w3.org/1999/xlink" width="200" height="200"><defs> </defs><path d="M161.664 303.189333l312.149333-156.117333a85.333333 85.333333 0 0 1 76.373334 0l312.149333 156.117333a42.666667 42.666667 0 0 1 0 76.330667l-312.192 156.074667a85.333333 85.333333 0 0 1-76.330667 0l-131.968-65.962667L257.066667 512l251.136 125.568a8.533333 8.533333 0 0 0 7.594666 0L766.976 512l-84.778667-42.368L768 426.666667l94.336 47.189333a42.666667 42.666667 0 0 1 0 76.330667L768 597.333333l94.293333 47.189334a42.666667 42.666667 0 0 1 0 76.330666l-312.149333 156.074667a85.333333 85.333333 0 0 1-76.330667 0L161.706667 720.853333a42.666667 42.666667 0 0 1 0-76.330666L256 597.333333l-94.336-47.146666a42.666667 42.666667 0 0 1 0-76.373334L256 426.666667 161.664 379.52a42.666667 42.666667 0 0 1 0-76.373333z m346.496 163.712a8.533333 8.533333 0 0 0 7.68 0L766.890667 341.333333l-251.136-125.568a8.533333 8.533333 0 0 0-7.637334 0L257.066667 341.333333l251.093333 125.568zM257.066667 682.666667l251.093333 125.568a8.533333 8.533333 0 0 0 7.68 0L766.890667 682.666667l-84.821334-42.368-131.968 65.962666a85.333333 85.333333 0 0 1-76.288 0l-132.010666-65.962666L257.066667 682.666667z" fill="" p-id="1723"></path></svg>