<?xml version="1.0" standalone="no"?><!DOCTYPE svg PUBLIC "-//W3C//DTD SVG 1.1//EN" "http://www.w3.org/Graphics/SVG/1.1/DTD/svg11.dtd"><svg t="1648101686375" class="icon" viewBox="0 0 1024 1024" version="1.1" xmlns="http://www.w3.org/2000/svg" p-id="4212" xmlns:xlink="http://www.w3.org/1999/xlink" width="200" height="200"><defs></defs><path d="M128 250.24c0-49.92 40.32-90.24 90.24-90.24h587.52c49.92 0 90.24 40.32 90.24 90.24v104.64c0 28.416-13.376 55.168-36.096 72.192L640 592v272a32 32 0 0 1-64 0V576a32 32 0 0 1 12.8-25.6l232.704-174.528A26.24 26.24 0 0 0 832 354.88V250.24a26.24 26.24 0 0 0-26.24-26.176H218.24a26.24 26.24 0 0 0-26.24 26.24v104.64c0 8.32 3.84 16 10.496 20.992L435.2 550.4A32 32 0 0 1 448 576v192a32 32 0 0 1-64 0V592L164.096 427.072A90.24 90.24 0 0 1 128 354.88V250.24z" p-id="4213" fill="currentColor"></path></svg>