<?xml version="1.0" standalone="no"?><!DOCTYPE svg PUBLIC "-//W3C//DTD SVG 1.1//EN" "http://www.w3.org/Graphics/SVG/1.1/DTD/svg11.dtd"><svg t="1648106126160" class="icon" viewBox="0 0 1024 1024" version="1.1" xmlns="http://www.w3.org/2000/svg" p-id="1692" xmlns:xlink="http://www.w3.org/1999/xlink" width="200" height="200"><defs><style type="text/css">@font-face { font-family: feedback-iconfont; src: url("//at.alicdn.com/t/font_1031158_u69w8yhxdu.woff2?t=1630033759944") format("woff2"), url("//at.alicdn.com/t/font_1031158_u69w8yhxdu.woff?t=1630033759944") format("woff"), url("//at.alicdn.com/t/font_1031158_u69w8yhxdu.ttf?t=1630033759944") format("truetype"); }
</style></defs><path d="M208 272a48 48 0 1 0 0-96 48 48 0 0 0 0 96zM208 560a48 48 0 1 0 0-96 48 48 0 0 0 0 96zM256 800a48 48 0 1 1-96 0 48 48 0 0 1 96 0zM352 192a32 32 0 0 0 0 64H832a32 32 0 0 0 0-64H352zM320 512a32 32 0 0 1 32-32H832a32 32 0 0 1 0 64H352A32 32 0 0 1 320 512zM352 768a32 32 0 0 0 0 64H832a32 32 0 0 0 0-64H352z" p-id="1693" fill="currentColor"></path></svg>